<svg width="1050" height="382" viewBox="0 0 1050 382" fill="none" xmlns="http://www.w3.org/2000/svg">
<path fill-rule="evenodd" clip-rule="evenodd" d="M245.796 91.767H93.288V375.687H0V86V6.08401V0H403V0.175613C405.935 0.0585375 408.892 0 411.87 0C454.458 0 489.779 10.309 517.833 30.927C530.677 39.715 542 50.024 551.802 61.854C568.702 82.134 580.532 104.442 587.292 128.778L500.088 155.649C495.694 136.045 484.202 118.976 465.612 104.442C450.402 92.95 431.981 87.204 410.349 87.204C382.633 87.204 359.649 97.175 341.397 117.117C323.145 137.397 314.019 161.733 314.019 190.125C314.019 218.517 322.976 242.684 340.89 262.626C358.395 282.824 381.431 292.964 410 293.046V293H609.172V6.08401H702.967V164.775L817.042 6.08401H926.554L799.804 181.506L935.68 375.687H819.577L702.967 200.772V293H703V381H420.886C417.088 381.176 413.238 381.264 409.335 381.264C383.309 381.264 358.466 376.363 334.806 366.561C311.484 357.097 291.204 343.746 273.966 326.508C257.066 310.284 243.715 290.173 233.913 266.175C223.773 242.515 218.703 217.334 218.703 190.632C218.703 164.944 223.604 140.439 233.406 117.117C236.858 108.354 240.988 99.9041 245.796 91.767Z" fill="#CDCDCD"/>
<path fill-rule="evenodd" clip-rule="evenodd" d="M320.796 91.767H168.288V375.687H75V86V6.08401V0H478V0.175613C480.935 0.0585375 483.892 0 486.87 0C529.458 0 564.779 10.309 592.833 30.927C605.677 39.715 617 50.024 626.802 61.854C643.702 82.134 655.532 104.442 662.292 128.778L575.088 155.649C570.694 136.045 559.202 118.976 540.612 104.442C525.402 92.95 506.981 87.204 485.349 87.204C457.633 87.204 434.649 97.175 416.397 117.117C398.145 137.397 389.019 161.733 389.019 190.125C389.019 218.517 397.976 242.684 415.89 262.626C433.395 282.824 456.431 292.964 485 293.046V293H684.172V6.08401H777.967V164.775L892.042 6.08401H1001.55L874.804 181.506L1010.68 375.687H894.577L777.967 200.772V293H778V381H495.886C492.088 381.176 488.238 381.264 484.335 381.264C458.309 381.264 433.466 376.363 409.806 366.561C386.484 357.097 366.204 343.746 348.966 326.508C332.066 310.284 318.715 290.173 308.913 266.175C298.773 242.515 293.703 217.334 293.703 190.632C293.703 164.944 298.604 140.439 308.406 117.117C311.858 108.354 315.988 99.9041 320.796 91.767Z" fill="#FFB800"/>
<path fill-rule="evenodd" clip-rule="evenodd" d="M359.796 91.767H207.288V375.687H114V86V6.08401V0H517V0.175613C519.935 0.0585375 522.892 0 525.87 0C568.458 0 603.779 10.309 631.833 30.927C644.677 39.715 656 50.024 665.802 61.854C682.702 82.134 694.532 104.442 701.292 128.778L614.088 155.649C609.694 136.045 598.202 118.976 579.612 104.442C564.402 92.95 545.981 87.204 524.349 87.204C496.633 87.204 473.649 97.175 455.397 117.117C437.145 137.397 428.019 161.733 428.019 190.125C428.019 218.517 436.976 242.684 454.89 262.626C472.395 282.824 495.431 292.964 524 293.046V293H723.172V6.08401H816.967V164.775L931.042 6.08401H1040.55L913.804 181.506L1049.68 375.687H933.577L816.967 200.772V293H817V381H534.886C531.088 381.176 527.238 381.264 523.335 381.264C497.309 381.264 472.466 376.363 448.806 366.561C425.484 357.097 405.204 343.746 387.966 326.508C371.066 310.284 357.715 290.173 347.913 266.175C337.773 242.515 332.703 217.334 332.703 190.632C332.703 164.944 337.604 140.439 347.406 117.117C350.858 108.354 354.988 99.9041 359.796 91.767Z" fill="black"/>
</svg>
