<svg width="936" height="628" viewBox="0 0 936 628" fill="none" xmlns="http://www.w3.org/2000/svg">
<path d="M32.043 453.004V456.341H16.016V487.267H12.397V453.004H32.043ZM88.9497 456.341L87.0697 473.778C86.7564 476.66 86.1454 479.151 85.2367 481.251C84.6414 482.535 83.9991 483.585 83.3097 484.4C81.6177 486.374 79.3461 487.361 76.4947 487.361H76.3067V484.071C78.2807 484.071 79.8474 483.193 81.0067 481.439C81.5394 480.655 81.9781 479.778 82.3227 478.807C82.9494 477.146 83.3567 475.313 83.5447 473.308L85.7067 453.004H106.34V487.267H102.768V456.341H88.9497ZM178.009 453.004L192.814 487.267H189.007L185.247 478.525H166.588L162.828 487.267H159.162L173.92 453.004H178.009ZM183.884 475.235L175.894 456.717L167.951 475.235H183.884ZM245.627 453.004H257.941C261.137 452.941 263.769 453.693 265.837 455.26C267.936 456.795 268.986 458.91 268.986 461.605C268.986 462.513 268.829 463.453 268.516 464.425C268.328 465.02 268.046 465.615 267.67 466.211C266.793 467.589 265.492 468.67 263.769 469.454C266.182 470.08 267.952 471.318 269.08 473.167C270.02 474.733 270.49 476.3 270.49 477.867C270.49 481.063 269.284 483.46 266.871 485.058C264.584 486.53 261.764 487.267 258.411 487.267H245.627V453.004ZM249.199 468.232H257.377C260.072 468.232 262.061 467.652 263.346 466.493C264.662 465.333 265.32 463.845 265.32 462.028C265.32 460.085 264.584 458.644 263.111 457.704C261.638 456.764 259.821 456.294 257.659 456.294H249.199V468.232ZM249.199 483.977H258.505C260.73 483.977 262.672 483.475 264.333 482.473C265.994 481.439 266.824 479.825 266.824 477.632C266.824 475 265.445 473.198 262.688 472.227C261.309 471.694 259.68 471.428 257.8 471.428H249.199V483.977ZM329.223 453.004V468.185H348.728V453.004H352.347V487.267H348.728V471.569H329.223V487.267H325.604V453.004H329.223ZM424.045 453.004L438.85 487.267H435.043L431.283 478.525H412.624L408.864 487.267H405.198L419.956 453.004H424.045ZM429.92 475.235L421.93 456.717L413.987 475.235H429.92ZM488.702 487.267L499.183 473.026C496.457 472.712 494.185 471.663 492.368 469.877C490.613 468.153 489.736 465.913 489.736 463.156C489.736 459.834 490.895 457.312 493.214 455.589C495.564 453.865 498.462 453.004 501.909 453.004H513.753V487.267H510.181V473.59H503.084L493.026 487.267H488.702ZM510.181 456.294H502.144C499.763 456.294 497.742 456.826 496.081 457.892C494.264 459.114 493.355 460.931 493.355 463.344C493.355 465.631 494.217 467.401 495.94 468.655C497.695 469.877 499.778 470.488 502.191 470.488H510.181V456.294ZM27.108 557.643C22.314 557.643 18.272 556.029 14.982 552.802C13.4467 551.266 12.2403 549.433 11.363 547.303C10.4543 545.047 10 542.697 10 540.253C10 537.683 10.47 535.302 11.41 533.109C12.3813 530.853 13.619 528.988 15.123 527.516C18.4757 524.257 22.5177 522.628 27.249 522.628C30.821 522.628 33.8603 523.505 36.367 525.26C37.4323 525.949 38.435 526.826 39.375 527.892C40.9417 529.709 42.007 531.714 42.571 533.908L39.14 535.13C38.7953 533.814 38.1217 532.435 37.119 530.994C36.3983 530.022 35.662 529.223 34.91 528.597C34.0327 527.845 32.936 527.249 31.62 526.811C30.304 526.309 28.8157 526.059 27.155 526.059C23.4577 526.059 20.3243 527.343 17.755 529.913C15.0917 532.576 13.76 535.944 13.76 540.018C13.76 542.744 14.3397 545.172 15.499 547.303C16.627 549.465 18.2407 551.157 20.34 552.379C22.3453 553.601 24.6327 554.212 27.202 554.212C30.21 554.212 32.7167 553.413 34.722 551.815C35.6307 551.125 36.3827 550.342 36.978 549.465C37.5733 548.681 38.059 547.898 38.435 547.115C38.7483 546.363 39.0147 545.673 39.234 545.047L42.665 546.269C42.101 548.305 41.0513 550.248 39.516 552.097C38.7013 553.068 37.7143 553.993 36.555 554.87C33.9543 556.719 30.8053 557.643 27.108 557.643ZM118.608 523.004V526.388H107.187V557.267H103.568V526.388H92.1472V523.004H118.608ZM172.214 523.004H183.682C187.63 522.972 190.622 523.959 192.659 525.965C194.695 527.97 195.714 530.414 195.714 533.297C195.714 536.273 194.664 538.764 192.565 540.77C190.34 542.838 187.191 543.872 183.118 543.872H175.833V557.267H172.214V523.004ZM175.833 540.535H183.212C186.282 540.535 188.554 539.767 190.027 538.232C191.374 536.884 192.048 535.271 192.048 533.391C192.048 531.448 191.374 529.803 190.027 528.456C188.679 527.077 186.47 526.388 183.4 526.388H175.833V540.535ZM281.996 540.065C281.996 543.292 281.259 546.253 279.787 548.948C278.283 551.611 276.215 553.726 273.583 555.293C270.888 556.86 267.927 557.643 264.7 557.643C262.35 557.643 260.078 557.189 257.885 556.28C255.723 555.371 253.905 554.134 252.433 552.567C250.96 551.094 249.769 549.261 248.861 547.068C247.983 544.812 247.545 542.54 247.545 540.253C247.545 536.994 248.297 534.033 249.801 531.37C251.273 528.644 253.341 526.513 256.005 524.978C258.605 523.442 261.551 522.675 264.841 522.675C267.253 522.675 269.525 523.113 271.656 523.991C273.786 524.931 275.604 526.153 277.108 527.657C278.674 529.317 279.865 531.166 280.68 533.203C281.557 535.333 281.996 537.621 281.996 540.065ZM278.283 540.253C278.283 536.336 277.029 532.999 274.523 530.242C271.953 527.422 268.679 526.012 264.7 526.012C262.224 526.012 259.921 526.638 257.791 527.892C255.723 529.208 254.125 530.915 252.997 533.015C251.869 535.177 251.305 537.527 251.305 540.065C251.305 544.013 252.558 547.334 255.065 550.029C257.634 552.849 260.893 554.259 264.841 554.259C267.347 554.259 269.65 553.617 271.75 552.332C273.818 551.141 275.431 549.449 276.591 547.256C277.719 545.125 278.283 542.791 278.283 540.253ZM341.216 557.267H337.033V523.004H340.652V552.426L360.157 523.004H364.34V557.267H360.768V527.657L341.216 557.267ZM444.438 523.004V526.388H433.017V557.267H429.398V526.388H417.977V523.004H444.438ZM517.971 538.185V541.522H501.662V553.93H519.663V557.267H498.043V523.004H519.475V526.341H501.662V538.185H517.971ZM583.638 526.341L581.758 543.778C581.444 546.66 580.833 549.151 579.925 551.251C579.329 552.536 578.687 553.585 577.998 554.4C576.306 556.374 574.034 557.361 571.183 557.361H570.995V554.071C572.969 554.071 574.535 553.194 575.695 551.439C576.227 550.655 576.666 549.778 577.011 548.807C577.637 547.146 578.045 545.313 578.233 543.308L580.395 523.004H601.028V557.267H597.456V526.341H583.638ZM662.075 536.352H669.736C672.368 536.352 674.765 536.775 676.927 537.621C678.149 538.153 679.167 538.764 679.982 539.454C681.956 541.114 682.943 543.449 682.943 546.457C682.943 549.559 681.893 552.112 679.794 554.118C677.601 556.217 674.436 557.267 670.3 557.267H658.456V523.004H662.075V536.352ZM662.075 553.93H670.159C671.976 553.93 673.606 553.632 675.047 553.037C675.799 552.755 676.52 552.332 677.209 551.768C678.619 550.514 679.324 548.76 679.324 546.504C679.324 544.342 678.525 542.681 676.927 541.522C675.235 540.268 672.901 539.642 669.924 539.642H662.075V553.93ZM740.813 523.004V538.185H760.318V523.004H763.937V557.267H760.318V541.569H740.813V557.267H737.194V523.004H740.813ZM835.635 523.004L850.44 557.267H846.633L842.873 548.525H824.214L820.454 557.267H816.788L831.546 523.004H835.635ZM841.51 545.235L833.52 526.717L825.577 545.235H841.51ZM900.292 557.267L910.773 543.026C908.047 542.712 905.775 541.663 903.958 539.877C902.203 538.153 901.326 535.913 901.326 533.156C901.326 529.834 902.485 527.312 904.804 525.589C907.154 523.865 910.052 523.004 913.499 523.004H925.343V557.267H921.771V543.59H914.674L904.616 557.267H900.292ZM921.771 526.294H913.734C911.352 526.294 909.331 526.826 907.671 527.892C905.853 529.114 904.945 530.931 904.945 533.344C904.945 535.631 905.806 537.401 907.53 538.655C909.284 539.877 911.368 540.488 913.781 540.488H921.771V526.294ZM31.62 593.004H36.602L19.823 609.407L37.401 627.267H32.325L16.251 610.77H16.016V627.267H12.397V593.004H16.016V608.138H16.251L31.62 593.004ZM116.763 610.065C116.763 613.292 116.027 616.253 114.554 618.948C113.05 621.611 110.982 623.726 108.35 625.293C105.655 626.86 102.694 627.643 99.4671 627.643C97.1171 627.643 94.8454 627.189 92.6521 626.28C90.4901 625.371 88.6727 624.134 87.2001 622.567C85.7274 621.094 84.5367 619.261 83.6281 617.068C82.7507 614.812 82.3121 612.54 82.3121 610.253C82.3121 606.994 83.0641 604.033 84.5681 601.37C86.0407 598.644 88.1087 596.513 90.7721 594.978C93.3727 593.443 96.3181 592.675 99.6081 592.675C102.021 592.675 104.292 593.114 106.423 593.991C108.554 594.931 110.371 596.153 111.875 597.657C113.442 599.318 114.632 601.166 115.447 603.203C116.324 605.334 116.763 607.621 116.763 610.065ZM113.05 610.253C113.05 606.336 111.797 602.999 109.29 600.242C106.721 597.422 103.446 596.012 99.4671 596.012C96.9917 596.012 94.6887 596.639 92.5581 597.892C90.4901 599.208 88.8921 600.916 87.7641 603.015C86.6361 605.177 86.0721 607.527 86.0721 610.065C86.0721 614.013 87.3254 617.334 89.8321 620.029C92.4014 622.849 95.6601 624.259 99.6081 624.259C102.115 624.259 104.418 623.617 106.517 622.332C108.585 621.141 110.199 619.449 111.358 617.256C112.486 615.125 113.05 612.791 113.05 610.253ZM191.258 627.267H188.015L175.372 598.127V627.267H171.8V593.004H176.923L189.707 622.379L202.397 593.004H207.567V627.267H203.995V597.892L191.258 627.267ZM265.042 593.004H291.362V627.267H287.79V596.341H268.661V627.267H265.042V593.004ZM363.024 593.004L377.829 627.267H374.022L370.262 618.525H351.603L347.843 627.267H344.177L358.935 593.004H363.024ZM368.899 615.235L360.909 596.717L352.966 615.235H368.899ZM434.261 593.004V608.185H453.766V593.004H457.385V627.267H453.766V611.569H434.261V627.267H430.642V593.004H434.261ZM519.025 627.267H514.842V593.004H518.461V622.426L537.966 593.004H542.149V627.267H538.577V597.657L519.025 627.267ZM596.631 627.267L607.112 613.026C604.386 612.713 602.115 611.663 600.297 609.877C598.543 608.154 597.665 605.913 597.665 603.156C597.665 599.835 598.825 597.312 601.143 595.589C603.493 593.866 606.392 593.004 609.838 593.004H621.682V627.267H618.11V613.59H611.013L600.955 627.267H596.631ZM618.11 596.294H610.073C607.692 596.294 605.671 596.827 604.01 597.892C602.193 599.114 601.284 600.931 601.284 603.344C601.284 605.631 602.146 607.402 603.869 608.655C605.624 609.877 607.708 610.488 610.12 610.488H618.11V596.294Z" fill="black"/>
<path fill-rule="evenodd" clip-rule="evenodd" d="M245.796 91.767H93.288V375.687H0V86V6.08401V0H403V0.175613C405.935 0.0585375 408.892 0 411.87 0C454.458 0 489.779 10.309 517.833 30.927C530.677 39.715 542 50.024 551.802 61.854C568.702 82.134 580.532 104.442 587.292 128.778L500.088 155.649C495.694 136.045 484.202 118.976 465.612 104.442C450.402 92.95 431.981 87.204 410.349 87.204C382.633 87.204 359.649 97.175 341.397 117.117C323.145 137.397 314.019 161.733 314.019 190.125C314.019 218.517 322.976 242.684 340.89 262.626C358.395 282.824 381.431 292.964 410 293.046V293H609.172V6.08401H702.967V164.775L817.042 6.08401H926.554L799.804 181.506L935.68 375.687H819.577L702.967 200.772V293H703V381H420.886C417.088 381.176 413.238 381.264 409.335 381.264C383.309 381.264 358.466 376.363 334.806 366.561C311.484 357.097 291.204 343.746 273.966 326.508C257.066 310.284 243.715 290.173 233.913 266.175C223.773 242.515 218.703 217.334 218.703 190.632C218.703 164.944 223.604 140.439 233.406 117.117C236.858 108.354 240.988 99.9041 245.796 91.767Z" fill="black"/>
</svg>
